<?xml version="1.0"?>
<svg xmlns="http://www.w3.org/2000/svg" xmlns:xlink="http://www.w3.org/1999/xlink" xmlns:svgjs="http://svgjs.com/svgjs" version="1.1" width="512" height="512" x="0" y="0" viewBox="0 0 512 512" style="enable-background:new 0 0 512 512" xml:space="preserve" class=""><g><g xmlns="http://www.w3.org/2000/svg"><g><path d="m31 16h-15v480h480v-15zm81 384v-176l176 176z" fill="#ea5455" data-original="#57a4ff" style="" class=""/><g><path d="m337.455-21.458h23.999v368.007h-23.999z" fill="#ea5455" transform="matrix(.707 -.707 .707 .707 -12.583 294.713)" data-original="#57a4ff" style="" class=""/><g fill="none"><path d="m290.059 221.941 22.627-22.627" fill=""/><path d="m267.431 199.314 11.314-11.314" fill=""/><path d="m267.43 154.06-22.62 22.63h-.01" fill=""/><path d="m222.177 154.059 11.313-11.314" fill=""/><path d="m199.549 131.431 22.628-22.627" fill=""/><path d="m176.922 108.804 11.313-11.314" fill=""/><path d="m403.196 335.078 11.314-11.313" fill=""/><path d="m380.569 312.451 22.627-22.628" fill=""/><path d="m357.941 289.823 11.314-11.313" fill=""/><path d="m357.94 244.57-22.62 22.63h-.01" fill=""/><path d="m312.686 244.569 11.314-11.314" fill=""/></g></g></g><g fill="#004fac"><path d="m501.66 475.34-465-465a8.008 8.008 0 0 0 -5.66-2.34h-15a8 8 0 0 0 -8 8v480a8 8 0 0 0 8 8h480a8 8 0 0 0 8-8v-15a8.008 8.008 0 0 0 -2.34-5.66zm-13.66 12.66h-32v-16a8 8 0 0 0 -16 0v16h-32v-8a8 8 0 0 0 -16 0v8h-32v-16a8 8 0 0 0 -16 0v16h-32v-8a8 8 0 0 0 -16 0v8h-32v-16a8 8 0 0 0 -16 0v16h-32v-8a8 8 0 0 0 -16 0v8h-32v-16a8 8 0 0 0 -16 0v16h-32v-8a8 8 0 0 0 -16 0v8h-32v-16a8 8 0 0 0 -16 0v16h-32v-32h16a8 8 0 0 0 0-16h-16v-32h8a8 8 0 0 0 0-16h-8v-32h16a8 8 0 0 0 0-16h-16v-32h8a8 8 0 0 0 0-16h-8v-32h16a8 8 0 0 0 0-16h-16v-32h8a8 8 0 0 0 0-16h-8v-32h16a8 8 0 0 0 0-16h-16v-32h8a8 8 0 0 0 0-16h-8v-32h16a8 8 0 0 0 0-16h-16v-32h3.69l460.31 460.31z" fill="#e5dfdc" data-original="#004fac" style="" class=""/><path d="m112 408h176a8 8 0 0 0 5.657-13.657l-176-176a8 8 0 0 0 -13.657 5.657v176a8 8 0 0 0 8 8zm8-164.687 148.686 148.687h-148.686z" fill="#e5dfdc" data-original="#004fac" style="" class=""/><path d="m493.71 278.51-260.22-260.22a8 8 0 0 0 -11.31 0l-67.89 67.89a8 8 0 0 0 0 11.31l260.22 260.22a8 8 0 0 0 11.31 0l67.89-67.89a8 8 0 0 0 0-11.31zm-73.54 62.23-5.66-5.66 5.66-5.66a8 8 0 0 0 -11.32-11.31l-5.65 5.65-11.32-11.31 16.97-16.97a8 8 0 0 0 -11.31-11.31l-16.97 16.97-11.32-11.32 5.66-5.65a8 8 0 0 0 -11.31-11.32l-5.66 5.66-11.31-11.31 16.97-16.97a8 8 0 1 0 -11.32-11.32l-16.97 16.97-11.31-11.31 5.66-5.66a8 8 0 0 0 -11.32-11.31l-5.65 5.65-11.32-11.31 16.97-16.97a8 8 0 0 0 -11.31-11.31l-16.97 16.97-11.31-11.32 5.65-5.65a8 8 0 1 0 -11.31-11.32l-5.66 5.66-11.31-11.31 16.97-16.97a8 8 0 0 0 -11.32-11.32l-16.97 16.97-11.31-11.31 5.66-5.66a8 8 0 0 0 -11.32-11.31l-5.65 5.65-11.32-11.31 16.97-16.97a8 8 0 0 0 -11.31-11.31l-16.97 16.97-11.31-11.32 5.65-5.65a8 8 0 1 0 -11.31-11.32l-5.66 5.66-5.65-5.66 39.59-39.59 248.9 248.9zm50.91-50.92-248.9-248.9 5.65-5.66 248.9 248.91z" fill="#e5dfdc" data-original="#004fac" style="" class=""/></g></g></g></svg>
